Coordinates
version=1
nRows=6
nColumns=34
inDegrees=yes

Units are S.I. units (second, meters, Newtons, ...)
If the header above contains a line with 'inDegrees', this indicates whether rotational values are in degrees (yes) or radians (no).

endheader
time	pelvis_tilt	pelvis_list	pelvis_rotation	pelvis_tx	pelvis_ty	pelvis_tz	hip_flexion_r	hip_adduction_r	hip_rotation_r	knee_angle_r	ankle_angle_r	subtalar_angle_r	mtp_angle_r	hip_flexion_l	hip_adduction_l	hip_rotation_l	knee_angle_l	ankle_angle_l	subtalar_angle_l	mtp_angle_l	lumbar_extension	lumbar_bending	lumbar_rotation	arm_flex_r	arm_add_r	arm_rot_r	elbow_flex_r	pro_sup_r	arm_flex_l	arm_add_l	arm_rot_l	elbow_flex_l	pro_sup_l
      2.81666670	    -11.66972097	      0.05828909	      8.43106700	      1.82402261	      0.87387392	     -0.10729243	      2.65889574	     -9.33738154	    -15.52888080	     17.27667907	     -7.31648953	    -12.47184495	      0.00000000	      4.21647195	     -2.63938610	     -5.03051358	     11.74336215	     -1.45636174	     -1.09292383	      0.00000000	      6.40550868	     -1.83083469	      1.23207258	     83.49137162	    -31.81671208	     31.38060325	     98.84656045	     91.03837432	     31.92704917	    -18.61604595	     19.85330895	    122.33343002	    100.45895900
      2.83333330	    -11.63947255	     -0.45003205	      8.81321221	      1.83000303	      0.87197725	     -0.11181380	      4.07730312	     -9.42333540	    -14.91224031	     20.67942353	     -8.22345652	    -14.52677799	      0.00000000	      3.52943012	     -2.87760410	     -4.55171810	     11.21223259	     -0.77233767	     -0.66570027	      0.00000000	      5.98696861	     -1.41529956	     -0.12440718	     73.56344786	    -33.51808918	     28.25043884	    101.01440605	     91.78980825	     24.07288202	    -17.50956152	     18.26037539	    119.17862431	    100.21308851
      2.85000000	    -11.51231792	     -1.08381190	      9.22988279	      1.83493595	      0.86949531	     -0.11605475	      6.21669770	     -9.51659802	    -14.36139236	     25.40233750	     -9.63243942	    -17.11332495	      0.00000000	      2.78215784	     -3.31679396	     -4.18901990	     10.65270306	     -0.02205606	     -0.12505261	      0.00000000	      5.32300882	     -0.96853329	     -1.34957747	     63.62948654	    -34.33688691	     24.64048131	    101.06458335	     92.18027300	     16.99810184	    -15.95000334	     16.29288714	    114.77379666	     99.50865777
      2.86666670	    -11.23838513	     -1.72662597	      9.62998027	      1.83910991	      0.86901385	     -0.11988068	      9.11129054	     -9.76447064	    -13.90609471	     31.45287791	    -11.51887185	    -19.96879032	      0.00000000	      1.94892173	     -3.85120986	     -3.97890650	     10.16317965	      0.72102323	      0.52152074	      0.00000000	      4.36792450	     -0.61916100	     -2.36067150	     53.77679096	    -34.17593563	     19.81488929	     99.45718991	     92.27693868	     11.18930874	    -14.31742067	     14.57306633	    109.47523751	     98.16464698
      2.88333330	    -10.62467654	     -2.40675859	      9.81968821	      1.84414026	      0.87164162	     -0.12314909	     12.23102039	     -9.83436913	    -13.15145377	     37.92107901	    -13.07824121	    -21.83510592	      0.00000000	      0.73441326	     -4.54273624	     -3.78746942	      9.73625181	      1.60133715	      1.12354368	      0.00000000	      3.00378948	     -0.09289325	     -3.40892817	     44.35285356	    -32.78635971	     15.43644301	     95.46155384	     91.97103979	      6.23736270	    -12.55889084	     12.26046170	    102.96531903	     96.86872670
      2.90000000	    -10.03396376	     -2.68703842	      9.85616873	      1.85096414	      0.87484643	     -0.12500974	     15.63586012	    -10.13277452	    -12.24695253	     44.31901130	    -13.82431183	    -22.92074627	      0.00000000	     -0.60869876	     -4.91245835	     -4.18209665	      9.23257071	      2.23873151	      2.26069942	      0.00000000	      1.28645777	     -0.49112760	     -0.87401500	     30.53512465	    -32.99136181	      4.67699041	     94.59456101	     91.02476807	      5.47783060	    -11.30089215	     15.03955614	     94.01761408	     91.74073350
